<svg width="20" height="20" viewBox="0 0 20 20" fill="none" xmlns="http://www.w3.org/2000/svg">
<path d="M6.33334 2C4.20667 2 3 3.20533 3 5.33042V17.8194C3 18.4172 3.59583 18.8354 4.14584 18.6L9.66668 16.2322L15.1617 18.6C15.7117 18.8354 16.3334 18.4172 16.3334 17.8194V5.33042C16.3334 3.14617 15.2459 2 13 2H6.33334ZM6.33334 3.66517H13C14.305 3.66517 14.6667 4.04642 14.6667 5.33042V16.5705L9.97918 14.5671C9.76918 14.4773 9.53751 14.4773 9.32834 14.5671L4.66667 16.5705V5.33042C4.66667 4.125 5.12667 3.66517 6.33334 3.66517Z" fill="#2A343D"/>
</svg>
