<svg width="15" height="18" viewBox="0 0 15 18" fill="none" xmlns="http://www.w3.org/2000/svg">
    <path d="M7.50001 1.51711e-08C7.04001 1.51711e-08 6.66667 0.405613 6.66667 0.905994V10.4751L4.16667 7.78611L2.995 9.05994L6.90084 13.3353C7.22668 13.6887 7.77333 13.6887 8.09917 13.3353L12.005 9.05994L10.8333 7.78611L8.33334 10.4751V0.905994C8.33334 0.405613 7.96001 -9.05842e-05 7.50001 1.51711e-08ZM0.833334 10.8719C0.373334 10.8719 0 11.2778 0 11.7779V13.5899C0 15.5912 1.4925 17.2139 3.33334 17.2139H11.6667C13.5075 17.2139 15 15.5912 15 13.5899V11.7779C15 11.2778 14.6267 10.8719 14.1667 10.8719C13.7067 10.8719 13.3333 11.2778 13.3333 11.7779V13.5899C13.3333 14.591 12.5875 15.4019 11.6667 15.4019H3.33334C2.4125 15.4019 1.66667 14.591 1.66667 13.5899V11.7779C1.66667 11.2778 1.29333 10.8719 0.833334 10.8719Z" fill="white"/>
</svg>
