<svg width="53" height="52" viewBox="0 0 53 52" fill="none" xmlns="http://www.w3.org/2000/svg">
<path fill-rule="evenodd" clip-rule="evenodd" d="M14.5707 18.6066C14.5707 18.6066 25.0769 24.5408 27.1162 24.5408C29.2535 24.5408 39.646 18.72 39.646 18.72L39.6627 17.68C39.6627 16.5318 38.7271 15.6 37.5712 15.6H16.6611C15.5062 15.6 14.5707 16.5318 14.5707 17.68V18.6066ZM39.646 21.84C39.646 21.84 29.3517 27.4008 27.1162 27.4008C25.0769 27.4008 14.5863 21.84 14.5874 21.84L14.5707 34.32C14.5707 35.4681 15.5073 36.4 16.6611 36.4H37.5712C38.7271 36.4 39.6627 35.4681 39.6627 34.32L39.646 21.84Z" fill="#102C51"/>
</svg>
