<svg width="26" height="22" viewBox="0 0 26 22" fill="none" xmlns="http://www.w3.org/2000/svg">
<path fill-rule="evenodd" clip-rule="evenodd" d="M0.570679 3.60662C0.570679 3.60662 11.0769 9.54075 13.1162 9.54075C15.2535 9.54075 25.646 3.71998 25.646 3.71998L25.6627 2.67998C25.6627 1.53182 24.7271 0.599976 23.5712 0.599976H2.66107C1.50624 0.599976 0.570679 1.53182 0.570679 2.67998V3.60662ZM25.646 6.83998C25.646 6.83998 15.3517 12.4008 13.1162 12.4008C11.0769 12.4008 0.586341 6.83998 0.587385 6.83998L0.570679 19.32C0.570679 20.4681 1.50728 21.4 2.66107 21.4H23.5712C24.7271 21.4 25.6627 20.4681 25.6627 19.32L25.646 6.83998Z" fill="#102C51"/>
</svg>
